<?xml version="1.0" encoding="UTF-8" standalone="no"?>
<!DOCTYPE svg PUBLIC "-//W3C//DTD SVG 1.1//EN" "http://www.w3.org/Graphics/SVG/1.1/DTD/svg11.dtd">
<svg width="100%" height="100%" viewBox="0 0 32 32" version="1.1" xmlns="http://www.w3.org/2000/svg" xmlns:xlink="http://www.w3.org/1999/xlink" xml:space="preserve" xmlns:serif="http://www.serif.com/" style="fill-rule:evenodd;clip-rule:evenodd;stroke-linejoin:round;stroke-miterlimit:2;">
    <path d="M32,8L32,24C32,28.415 28.415,32 24,32L8,32C3.585,32 0,28.415 0,24L0,8C0,3.585 3.585,0 8,0L24,0C28.415,0 32,3.585 32,8Z" style="fill:url(#_Linear1);"/>
    <path d="M10.398,11.951C10.867,11.483 11.627,11.483 12.095,11.951C12.564,12.419 12.564,13.18 12.095,13.648L9.724,16.019L11.967,18.369C12.424,18.848 12.406,19.608 11.927,20.065C11.448,20.522 10.688,20.505 10.231,20.026L7.179,16.828C6.729,16.357 6.737,15.612 7.198,15.151L10.398,11.951ZM19.905,13.648C19.436,13.18 19.436,12.419 19.905,11.951C20.373,11.483 21.133,11.483 21.602,11.951L24.802,15.151C25.263,15.612 25.271,16.357 24.821,16.828L21.769,20.026C21.312,20.505 20.552,20.522 20.073,20.065C19.594,19.608 19.576,18.848 20.033,18.369L22.276,16.019L19.905,13.648Z" style="fill:white;"/>
    <path d="M16.445,10.011C16.633,9.347 17.324,8.961 17.988,9.149C18.652,9.337 19.038,10.028 18.85,10.692L15.649,21.989C15.461,22.653 14.769,23.039 14.106,22.851C13.442,22.663 13.056,21.972 13.244,21.308L16.445,10.011Z" style="fill:white;fill-opacity:0.6;"/>
    <defs>
        <linearGradient id="_Linear1" x1="0" y1="0" x2="1" y2="0" gradientUnits="userSpaceOnUse" gradientTransform="matrix(23,27,-27,23,5,2)"><stop offset="0" style="stop-color:rgb(149,139,248);stop-opacity:1"/><stop offset="1" style="stop-color:rgb(93,99,242);stop-opacity:1"/></linearGradient>
    </defs>
</svg>
